<?xml version="1.0" encoding="utf-8"?>
<!-- Generator: Adobe Illustrator 24.0.1, SVG Export Plug-In . SVG Version: 6.00 Build 0)  -->
<svg version="1.1" xmlns="http://www.w3.org/2000/svg" xmlns:xlink="http://www.w3.org/1999/xlink" x="0px" y="0px"
	 viewBox="0 0 1080 1080" style="enable-background:new 0 0 1080 1080;" xml:space="preserve">
<style type="text/css">
	.st0{display:none;}
	.st1{display:inline;}
	.st2{stroke:#FFFFFF;stroke-miterlimit:10;}
	.st3{fill:#0F0F0F;}
	.st4{font-family:'TimesNewRomanPSMT';}
	.st5{font-size:153.5897px;}
	.st6{font-family:'Gotham-Book';}
	.st7{font-size:54.0101px;}
	.st8{font-size:47.5px;}
	.st9{font-size:40px;}
	.st10{fill:#FFFFFF;}
</style>
<g id="Layer_1" class="st0">
	<g class="st1">
		<g>
			<g>
				<path class="st2" d="M218.42,519.17h-12.55c5.5-39.92,21.69-72.36,48.58-97.34c26.89-24.98,56.71-37.46,89.45-37.46
					c17.21,0,37.22,2.74,60.05,8.25c22.82,5.49,40.57,8.25,53.24,8.25c17.21,0,33.28-7.23,48.22-21.69
					c14.93-14.46,24.08-34.48,27.43-60.05h14.7c3.34,25.57,12.42,45.59,27.25,60.05c14.82,14.46,30.95,21.69,48.4,21.69
					c12.66,0,30.35-2.75,53.06-8.25c22.7-5.5,42.78-8.25,60.23-8.25c32.5,0,62.26,12.49,89.27,37.46
					c27.01,24.97,43.14,57.42,48.4,97.34h-12.55c-6.69-27.96-17.63-48.46-32.8-61.48c-15.18-13.03-31.85-19.54-50.01-19.54
					c-14.11,0-32.69,2.69-55.75,8.07c-23.07,5.38-42.72,8.07-58.98,8.07c-24.14,0-47.56-8.85-70.27-26.53
					c-22.71-17.69-40.28-44.1-52.7-79.23c-12.67,34.42-30.6,60.64-53.78,78.69c-23.19,18.04-46.85,27.07-70.99,27.07
					c-16.26,0-35.91-2.69-58.98-8.07c-23.06-5.38-41.64-8.07-55.75-8.07c-18.16,0-34.83,6.51-50.01,19.54
					C236.4,470.71,225.35,491.21,218.42,519.17z"/>
			</g>
			<g>
				<path class="st2" d="M861.58,638.44h12.55c-5.26,39.91-21.33,72.36-48.22,97.34c-26.89,24.97-56.82,37.46-89.81,37.46
					c-17.21,0-37.17-2.75-59.87-8.25c-22.71-5.5-40.39-8.25-53.06-8.25c-17.21,0-33.29,7.23-48.22,21.69
					c-14.94,14.46-24.08,34.47-27.43,60.05h-14.7c-3.35-25.58-12.49-45.59-27.43-60.05c-14.94-14.46-31.01-21.69-48.22-21.69
					c-12.67,0-30.42,2.74-53.24,8.25c-22.83,5.49-42.84,8.25-60.05,8.25c-32.5,0-62.26-12.49-89.27-37.46
					c-27.01-24.98-43.26-57.42-48.76-97.34h12.55c6.94,27.96,17.93,48.45,32.98,61.48c15.06,13.02,31.79,19.54,50.19,19.54
					c14.11,0,32.69-2.75,55.75-8.25c23.06-5.5,42.6-8.25,58.62-8.25c24.38,0,47.92,8.9,70.63,26.71
					c22.7,17.8,40.27,44.28,52.7,79.41c12.67-34.42,30.59-60.71,53.78-78.87c23.18-18.17,46.84-27.25,70.99-27.25
					c16.25,0,35.91,2.74,58.98,8.25c23.06,5.49,41.64,8.25,55.75,8.25c18.16,0,34.83-6.52,50.01-19.54
					C843.96,686.9,854.89,666.41,861.58,638.44z"/>
			</g>
		</g>
		<g>
			<g>
				<g>
					<path class="st3" d="M409.18,267.25v59.99c0,4.75,4.67,8.09,9.17,6.56l122.94-41.95c1.45-0.5,3.03-0.5,4.48,0l122.94,41.95
						c4.5,1.53,9.17-1.81,9.17-6.56v-59.99c0-2.96-1.89-5.6-4.69-6.56l-127.41-43.48c-1.45-0.5-3.03-0.5-4.48,0l-127.41,43.48
						C411.06,261.65,409.18,264.29,409.18,267.25z"/>
					<path class="st3" d="M540.5,95.3L338.7,193.2c-4.75,2.3-5.28,8.85-0.97,11.9l67.5,47.7c1.81,1.28,4.12,1.62,6.22,0.9
						l129.84-43.96c1.44-0.49,3-0.49,4.45,0l129.84,43.96c2.1,0.71,4.41,0.37,6.22-0.9l67.5-47.7c4.31-3.04,3.77-9.59-0.97-11.9
						L546.55,95.3C544.64,94.38,542.41,94.38,540.5,95.3z"/>
				</g>
				<rect x="738.64" y="207.92" class="st3" width="5.33" height="100.22"/>
				<path class="st3" d="M746.82,315.61h-11.03c-0.78,0-1.42-0.63-1.42-1.42v-27.02c0-0.78,0.63-1.42,1.42-1.42h11.03
					c0.78,0,1.42,0.63,1.42,1.42v27.02C748.23,314.97,747.6,315.61,746.82,315.61z"/>
			</g>
		</g>
	</g>
	<text transform="matrix(1 0 0 1 271.2183 626.4922)" class="st1 st4 st5">Strive</text>
	<text transform="matrix(1 0 0 1 237.9663 903.8203)" class="st1 st6 st7">Institute of technology</text>
</g>
<g id="Layer_2">
	<g>
		<g>
			<g>
				<path class="st2" d="M831.24,588.28L831.24,588.28c3.6,0,6.28,3.24,5.68,6.78c-5.55,32.5-19.54,59.17-41.97,80.01
					c-23.98,22.27-50.67,33.41-80.08,33.41c-15.34,0-33.14-2.45-53.39-7.35c-20.25-4.91-36.02-7.35-47.31-7.35
					c-15.34,0-29.68,6.44-43,19.34c-12.37,11.97-20.28,28.21-23.74,48.73c-0.47,2.77-2.83,4.81-5.64,4.81h-3.27
					c-2.81,0-5.17-2.04-5.64-4.81c-3.46-20.52-11.37-36.76-23.74-48.73c-13.32-12.9-27.65-19.34-43-19.34
					c-11.3,0-27.12,2.45-47.47,7.35c-20.35,4.9-38.2,7.35-53.55,7.35c-28.98,0-55.51-11.14-79.6-33.41
					c-22.52-20.83-36.66-47.49-42.4-79.98c-0.63-3.55,2.06-6.81,5.67-6.81l0,0c2.6,0,4.87,1.75,5.56,4.26
					c6.22,22.77,15.65,39.62,28.3,50.56c13.43,11.61,28.35,17.42,44.75,17.42c12.58,0,29.15-2.45,49.71-7.35
					c20.56-4.91,37.99-7.35,52.27-7.35c21.74,0,42.73,7.94,62.98,23.82c17.27,13.54,31.21,32.72,41.82,57.51
					c1.97,4.6,8.5,4.64,10.53,0.07c10.8-24.28,25-43.32,42.6-57.1c20.67-16.2,41.77-24.3,63.3-24.3c14.49,0,32.02,2.45,52.59,7.35
					c20.56,4.9,37.13,7.35,49.71,7.35c16.19,0,31.06-5.81,44.59-17.42c12.74-10.94,22.13-27.78,28.17-50.52
					C826.34,590.05,828.62,588.28,831.24,588.28z"/>
			</g>
		</g>
		<g>
			<g>
				<g>
					<path class="st3" d="M409.18,431.25v59.99c0,4.75,4.67,8.09,9.17,6.56l122.94-41.95c1.45-0.5,3.03-0.5,4.48,0l122.94,41.95
						c4.5,1.53,9.17-1.81,9.17-6.56v-59.99c0-2.96-1.89-5.6-4.69-6.56l-127.41-43.48c-1.45-0.5-3.03-0.5-4.48,0l-127.41,43.48
						C411.06,425.65,409.18,428.29,409.18,431.25z"/>
					<path class="st3" d="M540.5,259.3L338.7,357.2c-4.75,2.3-5.28,8.85-0.97,11.9l67.5,47.7c1.81,1.28,4.12,1.62,6.22,0.9
						l129.84-43.96c1.44-0.49,3-0.49,4.45,0l129.84,43.96c2.1,0.71,4.41,0.37,6.22-0.9l67.5-47.7c4.31-3.04,3.77-9.59-0.97-11.9
						l-201.79-97.9C544.64,258.38,542.41,258.38,540.5,259.3z"/>
				</g>
				<rect x="738.64" y="371.92" class="st3" width="5.33" height="100.22"/>
				<path class="st3" d="M746.82,479.61h-11.03c-0.78,0-1.42-0.63-1.42-1.42v-27.02c0-0.78,0.63-1.42,1.42-1.42h11.03
					c0.78,0,1.42,0.63,1.42,1.42v27.02C748.23,478.97,747.6,479.61,746.82,479.61z"/>
			</g>
		</g>
		<text transform="matrix(1 0 0 1 271.2183 628.4922)" class="st4 st5">Strive</text>
		<text transform="matrix(1 0 0 1 274.7808 821.8203)" class="st6 st8">Institute of technology</text>
	</g>
</g>
<g id="Layer_3" class="st0">
	<g class="st1">
		<g>
			<g>
				<g>
					<path class="st3" d="M257.78,482.48l10.2,28.28c0.81,2.24,3.42,3.08,5.12,1.65l46.61-39.15c0.55-0.46,1.24-0.71,1.96-0.71
						l60.87,0.41c2.23,0.02,3.7-2.3,2.89-4.54l-10.2-28.28c-0.5-1.4-1.78-2.34-3.17-2.35l-63.08-0.42c-0.72,0-1.41,0.24-1.96,0.71
						l-48.3,40.58C257.65,479.55,257.28,481.09,257.78,482.48z"/>
					<path class="st3" d="M285.96,380.72l-71.57,77.95c-1.68,1.83-0.8,5.01,1.6,5.76l37.61,11.85c1.01,0.32,2.08,0.11,2.87-0.55
						l49.28-41.19c0.55-0.46,1.23-0.7,1.94-0.7l64.23,0.27c1.04,0,1.99-0.52,2.57-1.41l21.4-33.13c1.37-2.11,0.02-5.12-2.45-5.45
						L288.6,379.77C287.61,379.63,286.63,379.98,285.96,380.72z"/>
				</g>
				
					<rect x="400.15" y="400.69" transform="matrix(0.9407 -0.3391 0.3391 0.9407 -120.6134 161.3522)" class="st3" width="2.48" height="50.23"/>
				<path class="st3" d="M412.87,452.34l-3.39,1.22c-0.74,0.27-1.55-0.12-1.81-0.85l-4.11-11.41c-0.27-0.74,0.12-1.55,0.85-1.81
					l3.39-1.22c0.74-0.27,1.55,0.12,1.81,0.85l4.11,11.41C413.99,451.26,413.61,452.07,412.87,452.34z"/>
			</g>
		</g>
		<text transform="matrix(1 0 0 1 296.2183 585.4922)" class="st4 st5">Strive</text>
		<text transform="matrix(1 0 0 1 342.1924 646.0508)" class="st6 st9">Institute of technology</text>
		<g>
			<g>
				<path d="M322.07,631.73c3.36-0.4,4.8-1.68,4.8-3.68c0-2.12-1.64-4.84-1.64-8.16c0-3.16,2.2-4.84,6-4.84h1.8v1.56l-1.08,0.12
					c-2.8,0.32-3.92,0.96-3.92,3.32c0,3.08,0.84,6,0.84,7.6c0,3.04-1.6,5-5.4,5.08v-0.4c3.8,0.08,5.4,2.04,5.4,5.08
					c0,1.6-0.84,4.52-0.84,7.6c0,2.36,1.12,3,3.92,3.32l1.08,0.12v1.56h-1.8c-3.8,0-6-1.68-6-4.84c0-3.32,1.64-6.04,1.64-8.16
					c0-2-1.44-3.28-4.8-3.68V631.73z"/>
			</g>
		</g>
		<g>
			<g>
				<path d="M819.87,633.33c-3.36,0.4-4.8,1.68-4.8,3.68c0,2.12,1.64,4.84,1.64,8.16c0,3.16-2.2,4.84-6,4.84h-1.8v-1.56l1.08-0.12
					c2.8-0.32,3.92-0.96,3.92-3.32c0-3.08-0.84-6-0.84-7.6c0-3.04,1.6-5,5.4-5.08v0.4c-3.8-0.08-5.4-2.04-5.4-5.08
					c0-1.6,0.84-4.52,0.84-7.6c0-2.36-1.12-3-3.92-3.32l-1.08-0.12v-1.56h1.8c3.8,0,6,1.68,6,4.84c0,3.32-1.64,6.04-1.64,8.16
					c0,2,1.44,3.28,4.8,3.68V633.33z"/>
			</g>
		</g>
	</g>
</g>
<g id="Layer_4" class="st0">
	<g class="st1">
		<g>
			<g>
				<g>
					<g>
						<path class="st3" d="M214.66,445.89l0,17.47c0,1.38,1.36,2.36,2.67,1.91l35.79-12.21c0.42-0.14,0.88-0.14,1.3,0l35.79,12.21
							c1.31,0.45,2.67-0.53,2.67-1.91l0-17.47c0-0.86-0.55-1.63-1.37-1.91l-37.1-12.66c-0.42-0.14-0.88-0.14-1.3,0l-37.1,12.66
							C215.21,444.26,214.66,445.03,214.66,445.89z"/>
						<path class="st3" d="M252.9,395.83l-58.75,28.5c-1.38,0.67-1.54,2.58-0.28,3.46l19.65,13.89c0.53,0.37,1.2,0.47,1.81,0.26
							l37.8-12.8c0.42-0.14,0.87-0.14,1.29,0l37.8,12.8c0.61,0.21,1.28,0.11,1.81-0.26l19.65-13.89c1.25-0.89,1.1-2.79-0.28-3.46
							l-58.75-28.5C254.1,395.56,253.45,395.56,252.9,395.83z"/>
					</g>
					<rect x="310.58" y="428.62" class="st3" width="1.55" height="29.18"/>
					<path class="st3" d="M311.96,459.97h-1.2c-0.78,0-1.42-0.63-1.42-1.42v-5.86c0-0.78,0.63-1.42,1.42-1.42h1.2
						c0.78,0,1.42,0.63,1.42,1.42v5.86C313.38,459.33,312.74,459.97,311.96,459.97z"/>
				</g>
			</g>
			<path class="st3" d="M281.95,474.74c0.65,2.43,1.01,4.97,1.01,7.61c0,16.15-13.09,29.24-29.24,29.24s-29.24-13.09-29.24-29.24
				c0-2.63,0.35-5.18,1.01-7.61c-43.05,3.98-76.76,40.19-76.76,84.28v40.71c0,46.75,37.9,84.65,84.65,84.65h40.71
				c46.75,0,84.65-37.9,84.65-84.65v-40.71C358.72,514.93,325.01,478.72,281.95,474.74z"/>
			<g>
				<path class="st10" d="M229.48,557.16c0,0.81-0.03,1.47-0.1,1.98c-0.07,0.5-0.18,0.86-0.34,1.07c-0.16,0.21-0.37,0.3-0.61,0.27
					c-0.24-0.03-0.55-0.15-0.9-0.34l-38.43-19.41c-0.33-0.16-0.59-0.55-0.78-1.17c-0.2-0.62-0.29-1.51-0.29-2.68
					c0-0.52,0.02-1.01,0.07-1.46c0.05-0.45,0.13-0.83,0.24-1.12c0.11-0.29,0.24-0.54,0.39-0.76c0.15-0.21,0.32-0.35,0.51-0.41
					l38.28-19.31c0.75-0.36,1.26-0.34,1.54,0.05c0.28,0.39,0.41,1.35,0.41,2.88c0,0.94-0.02,1.69-0.07,2.24
					c-0.05,0.55-0.13,1-0.24,1.34c-0.11,0.34-0.28,0.6-0.49,0.78c-0.21,0.18-0.51,0.37-0.9,0.56l-31.41,15.36l31.21,15.12
					c0.42,0.23,0.76,0.43,1,0.61c0.24,0.18,0.43,0.44,0.56,0.78c0.13,0.34,0.22,0.8,0.27,1.37
					C229.46,555.46,229.48,556.22,229.48,557.16z"/>
				<path class="st10" d="M242.6,576.81c-0.13,0.42-0.3,0.76-0.51,1c-0.21,0.24-0.48,0.43-0.8,0.56c-0.33,0.13-0.72,0.23-1.19,0.29
					c-0.47,0.06-1.05,0.1-1.73,0.1c-0.81,0-1.49-0.06-2.02-0.17c-0.54-0.11-0.95-0.28-1.24-0.49c-0.29-0.21-0.47-0.47-0.54-0.78
					c-0.07-0.31,0-0.67,0.2-1.1l29.5-80.9c0.13-0.42,0.3-0.76,0.51-1c0.21-0.24,0.47-0.44,0.78-0.59c0.31-0.15,0.71-0.24,1.19-0.29
					s1.07-0.07,1.76-0.07c0.81,0,1.48,0.06,2,0.17c0.52,0.11,0.93,0.27,1.22,0.46s0.47,0.46,0.54,0.78c0.07,0.33,0.02,0.7-0.15,1.12
					L242.6,576.81z"/>
				<path class="st10" d="M319.41,537.07c0,0.55-0.03,1.05-0.1,1.49c-0.07,0.44-0.15,0.82-0.24,1.15c-0.1,0.33-0.23,0.58-0.39,0.76
					c-0.16,0.18-0.34,0.32-0.54,0.41l-38.28,19.31c-0.36,0.16-0.67,0.25-0.93,0.27c-0.26,0.02-0.46-0.09-0.61-0.32
					c-0.15-0.23-0.25-0.58-0.32-1.05c-0.07-0.47-0.1-1.08-0.1-1.83c0-0.91,0.02-1.64,0.05-2.19c0.03-0.55,0.1-1,0.22-1.34
					c0.11-0.34,0.28-0.61,0.51-0.8c0.23-0.2,0.52-0.37,0.88-0.54l31.45-15.46l-31.26-15.07c-0.42-0.2-0.76-0.38-1-0.56
					c-0.24-0.18-0.43-0.45-0.56-0.8c-0.13-0.36-0.21-0.82-0.24-1.39c-0.03-0.57-0.05-1.32-0.05-2.27c0-0.84,0.03-1.5,0.1-1.98
					c0.07-0.47,0.17-0.81,0.32-1.02c0.15-0.21,0.35-0.3,0.61-0.27c0.26,0.03,0.57,0.15,0.93,0.34l38.43,19.36
					c0.32,0.16,0.59,0.56,0.8,1.19C319.3,535.09,319.41,535.96,319.41,537.07z"/>
			</g>
			<g>
				<g>
					<path class="st10" d="M289.78,676.85c0,0.62-0.04,1.16-0.12,1.61c-0.08,0.45-0.21,0.8-0.38,1.05
						c-0.18,0.25-0.38,0.46-0.62,0.62c-0.23,0.16-0.47,0.23-0.7,0.23c-0.7,0.16-1.32,0.24-1.85,0.26c-0.53,0.02-1.16,0.03-1.9,0.03
						c-2.62,0-4.77-0.42-6.45-1.26c-1.68-0.84-3.01-2.09-3.98-3.75c-0.98-1.66-1.64-3.74-1.99-6.24c-0.35-2.5-0.53-5.82-0.53-9.96
						v-12.07c0-2.66-0.17-4.8-0.5-6.45c-0.33-1.64-0.84-3.08-1.52-4.31c-0.68-1.23-1.56-2.23-2.64-2.99
						c-1.08-0.76-2.37-1.22-3.9-1.38c-0.35-0.08-0.64-0.19-0.88-0.32s-0.42-0.34-0.56-0.62c-0.14-0.27-0.24-0.63-0.32-1.08
						c-0.08-0.45-0.12-0.97-0.12-1.55c0-0.63,0.03-1.15,0.09-1.58c0.06-0.43,0.16-0.79,0.29-1.08c0.14-0.29,0.32-0.5,0.56-0.62
						s0.53-0.21,0.88-0.29c2.89-0.31,5.05-1.71,6.47-4.19c1.43-2.48,2.14-6.14,2.14-10.99v-9.43c0-4.1,0.18-7.4,0.56-9.9
						c0.37-2.5,1.05-4.59,2.05-6.27c1-1.68,2.32-2.94,3.98-3.78c1.66-0.84,3.78-1.26,6.36-1.26c0.74,0,1.36,0.01,1.85,0.03
						c0.49,0.02,1.08,0.11,1.79,0.26c0.27,0,0.54,0.07,0.79,0.21c0.25,0.14,0.47,0.34,0.64,0.62c0.18,0.27,0.3,0.64,0.38,1.08
						c0.08,0.45,0.12,0.99,0.12,1.61c0,0.66-0.04,1.22-0.12,1.67c-0.08,0.45-0.21,0.83-0.38,1.14c-0.18,0.31-0.39,0.53-0.64,0.64
						c-0.25,0.12-0.54,0.18-0.85,0.18l-2.4,0.06c-0.94,0-1.74,0.17-2.4,0.5c-0.67,0.33-1.2,0.98-1.61,1.93
						c-0.41,0.96-0.72,2.28-0.94,3.96c-0.21,1.68-0.32,4.26-0.32,7.73v8.55c0,2.85-0.16,5.28-0.47,7.29
						c-0.31,2.01-0.87,3.82-1.67,5.42c-0.8,1.6-1.87,2.98-3.19,4.13c-1.33,1.15-3.01,1.94-5.04,2.37c2.03,0.39,3.71,1.16,5.04,2.31
						c1.33,1.15,2.39,2.54,3.19,4.16c0.8,1.62,1.36,3.43,1.67,5.42c0.31,1.99,0.47,4.43,0.47,7.32v11.13c0,3.44,0.1,6,0.29,7.68
						c0.2,1.68,0.5,3,0.91,3.96c0.41,0.96,0.94,1.61,1.58,1.96s1.42,0.53,2.31,0.53l2.46,0.06c0.35,0,0.66,0.06,0.94,0.18
						c0.27,0.12,0.5,0.32,0.67,0.62s0.3,0.66,0.38,1.11C289.74,675.57,289.78,676.14,289.78,676.85z"/>
				</g>
				<g>
					<path class="st10" d="M246.72,628.56c0,0.63-0.03,1.15-0.09,1.58s-0.16,0.78-0.29,1.05c-0.14,0.27-0.32,0.48-0.56,0.62
						s-0.51,0.22-0.82,0.26c-1.64,0.16-3.01,0.73-4.1,1.73c-1.09,1-1.98,2.28-2.67,3.84c-0.68,1.56-1.16,3.31-1.44,5.24
						c-0.27,1.93-0.41,4.31-0.41,7.12v9.43c0,4.1-0.2,7.4-0.59,9.9c-0.39,2.5-1.08,4.59-2.05,6.27c-0.98,1.68-2.31,2.94-3.98,3.78
						c-1.68,0.84-3.79,1.26-6.33,1.26c-0.74,0-1.37-0.02-1.88-0.06c-0.51-0.04-1.15-0.12-1.93-0.23c-0.27,0-0.53-0.08-0.76-0.23
						c-0.23-0.16-0.43-0.36-0.59-0.62c-0.16-0.25-0.29-0.61-0.41-1.05c-0.12-0.45-0.18-0.99-0.18-1.61c0-0.67,0.06-1.22,0.18-1.67
						c0.12-0.45,0.26-0.83,0.44-1.14c0.18-0.31,0.38-0.53,0.62-0.64s0.49-0.18,0.76-0.18l2.52-0.06c0.94,0,1.74-0.18,2.4-0.53
						c0.66-0.35,1.21-1,1.64-1.93c0.43-0.94,0.74-2.25,0.94-3.93c0.2-1.68,0.29-4.26,0.29-7.73v-8.55c0-2.89,0.17-5.47,0.5-7.73
						c0.33-2.27,0.89-4.38,1.67-6.33c0.78-1.95,1.85-3.63,3.19-5.04s3.02-2.32,5.01-2.75c-1.99-0.39-3.66-1.02-5.01-1.88
						c-1.35-0.86-2.41-1.94-3.19-3.25c-0.78-1.31-1.34-2.82-1.67-4.54c-0.33-1.72-0.5-4.02-0.5-6.91v-11.13
						c0-3.48-0.1-6.04-0.29-7.71c-0.2-1.66-0.5-2.97-0.91-3.93c-0.41-0.96-0.94-1.61-1.58-1.96s-1.42-0.53-2.31-0.53l-2.34-0.06
						c-0.43,0-0.79-0.06-1.08-0.18s-0.54-0.32-0.73-0.62c-0.2-0.29-0.33-0.66-0.41-1.11c-0.08-0.45-0.12-1.03-0.12-1.73
						c0-0.62,0.05-1.16,0.15-1.61c0.1-0.45,0.23-0.81,0.41-1.08c0.18-0.27,0.39-0.48,0.64-0.62c0.25-0.14,0.56-0.21,0.91-0.21
						c0.66-0.16,1.25-0.24,1.76-0.26c0.51-0.02,1.13-0.03,1.88-0.03c2.58,0,4.71,0.42,6.39,1.26c1.68,0.84,3.01,2.09,3.98,3.75
						c0.98,1.66,1.65,3.74,2.02,6.24c0.37,2.5,0.56,5.82,0.56,9.96v12.07c0,2.66,0.17,4.66,0.5,6.01c0.33,1.35,0.84,2.47,1.52,3.37
						c0.68,0.9,1.56,1.59,2.64,2.08c1.07,0.49,2.37,0.83,3.9,1.03c0.31,0,0.59,0.08,0.82,0.23c0.23,0.16,0.43,0.38,0.59,0.67
						c0.16,0.29,0.26,0.64,0.32,1.05S246.72,627.94,246.72,628.56z"/>
				</g>
			</g>
		</g>
		<g>
			<text transform="matrix(1 0 0 1 392.4253 599.2128)" class="st4 st5">Strive</text>
			<text transform="matrix(1 0 0 1 435.0103 659.7714)" class="st6 st9">Institute of technology</text>
		</g>
	</g>
</g>
</svg>
